<svg width="34" height="16" viewBox="0 0 34 16" fill="none" xmlns="http://www.w3.org/2000/svg">
<path d="M33.3228 0.0806885H11.3763C11.0022 0.0806885 10.699 0.382261 10.699 0.754305V2.02472H4.24363C3.86957 2.02472 3.56636 2.3263 3.56636 2.69834C3.56636 3.07038 3.86957 3.37196 4.24363 3.37196H10.699V12.12H6.84071C6.46665 12.12 6.16344 12.4216 6.16344 12.7937C6.16344 13.1657 6.46665 13.4673 6.84071 13.4673H10.699V14.7377C10.699 15.1097 11.0022 15.4113 11.3763 15.4113H33.3228C33.6969 15.4113 34.0001 15.1097 34.0001 14.7377V0.754305C34.0001 0.382261 33.6969 0.0806885 33.3228 0.0806885ZM31.652 1.42792L22.3505 9.02237L13.0914 1.42792H31.652ZM32.6455 14.0641H12.0536V2.32293L21.9186 10.4144C22.0438 10.5169 22.1966 10.5683 22.3496 10.5683C22.502 10.5683 22.6544 10.5173 22.7793 10.4154L32.6455 2.35985V14.0641Z" fill="white"/>
<path d="M7.94703 7.00416H0.677277C0.303211 7.00416 0 7.30573 0 7.67778C0 8.04982 0.303211 8.35139 0.677277 8.35139H7.94703C8.3211 8.35139 8.62431 8.04982 8.62431 7.67778C8.62438 7.30573 8.3211 7.00416 7.94703 7.00416Z" fill="white"/>
<path d="M4.60562 12.1201H4.24364C3.86957 12.1201 3.56636 12.4217 3.56636 12.7937C3.56636 13.1658 3.86957 13.4674 4.24364 13.4674H4.60562C4.97969 13.4674 5.2829 13.1658 5.2829 12.7937C5.2829 12.4217 4.97969 12.1201 4.60562 12.1201Z" fill="white"/>
</svg>
