<svg width="19" height="30" viewBox="0 0 19 30" fill="none" xmlns="http://www.w3.org/2000/svg">
<path d="M9.38625 0.913513C4.21068 0.913513 0 5.10143 0 10.249C0 14.8524 3.21039 20.8864 5.90361 25.1376C6.07731 25.4119 6.44163 25.4942 6.71752 25.3213C6.99322 25.1486 7.07593 24.7861 6.90214 24.5119C2.17301 17.0466 1.18039 12.6352 1.18039 10.249C1.18039 5.74875 4.86151 2.08742 9.38635 2.08742C13.9112 2.08742 17.5923 5.74865 17.5923 10.249C17.5923 17.5574 9.0061 28.6994 8.91935 28.811C8.72018 29.0676 8.76768 29.4362 9.02567 29.6343C9.13308 29.7168 9.26006 29.7568 9.38606 29.7568C9.56251 29.7568 9.73719 29.6783 9.85345 29.5286C10.2177 29.0598 18.7727 17.9581 18.7727 10.2489C18.7725 5.10143 14.5619 0.913513 9.38625 0.913513Z" fill="white"/>
<path d="M9.38622 7.2722C9.71208 7.2722 9.97636 7.00934 9.97636 6.68524C9.97636 6.36115 9.71208 6.09829 9.38622 6.09829C7.08505 6.09829 5.21291 7.9603 5.21291 10.249C5.21291 12.5378 7.08505 14.3998 9.38622 14.3998C11.6874 14.3998 13.5595 12.5378 13.5595 10.249C13.5595 9.33495 13.2665 8.46782 12.712 7.74127C12.515 7.48311 12.1447 7.43273 11.8851 7.62867C11.6255 7.82462 11.5748 8.19284 11.7719 8.4511C12.1692 8.97163 12.3792 9.59341 12.3792 10.249C12.3792 11.8905 11.0366 13.2259 9.38622 13.2259C7.73588 13.2259 6.3932 11.8905 6.3932 10.249C6.3932 8.60762 7.73598 7.2722 9.38622 7.2722Z" fill="white"/>
</svg>
