<svg width="26" height="27" viewBox="0 0 26 27" fill="none" xmlns="http://www.w3.org/2000/svg">
<path d="M18.4578 0.335144H7.54216C6.49003 0.335144 5.63333 1.18721 5.63333 2.23366V24.2957C5.63333 25.3425 6.49003 26.1946 7.54216 26.1946H18.4574C19.51 26.1946 20.3667 25.3425 20.3667 24.2961V2.23366C20.3667 1.18721 19.51 0.335144 18.4578 0.335144ZM6.5 3.78307H19.5V20.1607H6.5V3.78307ZM7.54216 1.19713H18.4574C19.0324 1.19713 19.5 1.66217 19.5 2.23366V2.92109H6.5V2.23366C6.5 1.66217 6.96756 1.19713 7.54216 1.19713ZM18.4578 25.3326H7.54216C6.96756 25.3326 6.5 24.8676 6.5 24.2961V21.0227H19.5V24.2961C19.5 24.8676 19.0324 25.3326 18.4578 25.3326Z" fill="white"/>
<path d="M13.0001 21.4537C12.0442 21.4537 11.2668 22.2269 11.2668 23.1777C11.2668 24.1284 12.0442 24.9016 13.0001 24.9016C13.956 24.9016 14.7334 24.1284 14.7334 23.1777C14.7334 22.2269 13.956 21.4537 13.0001 21.4537ZM13.0001 24.0397C12.5221 24.0397 12.1334 23.6531 12.1334 23.1777C12.1334 22.7023 12.5221 22.3157 13.0001 22.3157C13.4781 22.3157 13.8668 22.7023 13.8668 23.1777C13.8668 23.6531 13.4781 24.0397 13.0001 24.0397Z" fill="white"/>
<path d="M11.2668 2.49009H13.0001C13.2397 2.49009 13.4334 2.29744 13.4334 2.0591C13.4334 1.82076 13.2397 1.62811 13.0001 1.62811H11.2668C11.0271 1.62811 10.8334 1.82076 10.8334 2.0591C10.8334 2.29744 11.0271 2.49009 11.2668 2.49009Z" fill="white"/>
<path d="M14.3 2.49009H14.7334C14.973 2.49009 15.1667 2.29744 15.1667 2.0591C15.1667 1.82076 14.973 1.62811 14.7334 1.62811H14.3C14.0604 1.62811 13.8667 1.82076 13.8667 2.0591C13.8667 2.29744 14.0604 2.49009 14.3 2.49009Z" fill="white"/>
<path d="M24.5319 2.30433C24.3624 2.13581 24.0886 2.13581 23.9191 2.30433C23.7497 2.47285 23.7497 2.74523 23.9191 2.91375C25.5381 4.52393 25.5381 7.14393 23.9191 8.75454C23.7497 8.92306 23.7497 9.19545 23.9191 9.36396C24.0036 9.44801 24.1146 9.49024 24.2255 9.49024C24.3364 9.49024 24.4474 9.44801 24.5319 9.36396C26.4888 7.41804 26.4888 4.25069 24.5319 2.30433Z" fill="white"/>
<path d="M22.7071 3.28528C22.5377 3.11676 22.2638 3.11676 22.0944 3.28528C21.9249 3.4538 21.9249 3.72618 22.0944 3.8947C22.6304 4.42784 22.9255 5.13811 22.9255 5.89407C22.9255 6.65003 22.6304 7.35987 22.0944 7.893C21.9249 8.06152 21.9249 8.33391 22.0944 8.50243C22.1789 8.58647 22.2898 8.62871 22.4007 8.62871C22.5117 8.62871 22.6226 8.58647 22.7071 8.50243C23.4069 7.80681 23.7922 6.88018 23.7922 5.89407C23.7922 4.90796 23.4074 3.9809 22.7071 3.28528Z" fill="white"/>
<path d="M2.08092 2.91375C2.25035 2.74523 2.25035 2.47285 2.08092 2.30433C1.91149 2.13581 1.63762 2.13581 1.46819 2.30433C-0.488745 4.25069 -0.488745 7.41761 1.46819 9.36396C1.55269 9.44801 1.66362 9.49024 1.77455 9.49024C1.88549 9.49024 1.99642 9.44801 2.08092 9.36396C2.25035 9.19545 2.25035 8.92306 2.08092 8.75454C0.461555 7.14436 0.461555 4.52437 2.08092 2.91375Z" fill="white"/>
<path d="M3.90566 3.16633C3.73623 2.99781 3.46236 2.99781 3.29293 3.16633C2.5931 3.86195 2.20786 4.78858 2.20786 5.77469C2.20786 6.76079 2.5931 7.68742 3.29293 8.38347C3.37743 8.46752 3.48836 8.50975 3.5993 8.50975C3.71023 8.50975 3.82116 8.46752 3.90566 8.38347C4.0751 8.21496 4.0751 7.94257 3.90566 7.77405C3.36963 7.24092 3.07453 6.53064 3.07453 5.77469C3.07453 5.01873 3.3692 4.30888 3.90566 3.77575C4.07466 3.60766 4.07466 3.33485 3.90566 3.16633Z" fill="white"/>
</svg>
